<?xml version="1.0" encoding="UTF-8" standalone="no"?>
<svg
   width="117.672"
   height="24.144579"
   stroke-width="1.5"
   viewBox="0 0 117.672 24.144579"
   fill="none"
   color="#000000"
   version="1.1"
   id="svg2"
   sodipodi:docname="logo_dark.svg"
   xml:space="preserve"
   inkscape:version="1.4.2 (1:1.4.2+202505120738+ebf0e940d0)"
   inkscape:export-filename="logo.png"
   inkscape:export-xdpi="96"
   inkscape:export-ydpi="96"
   xmlns:inkscape="http://www.inkscape.org/namespaces/inkscape"
   xmlns:sodipodi="http://sodipodi.sourceforge.net/DTD/sodipodi-0.dtd"
   xmlns="http://www.w3.org/2000/svg"
   xmlns:svg="http://www.w3.org/2000/svg"><defs
     id="defs2" /><sodipodi:namedview
     id="namedview2"
     pagecolor="#505050"
     bordercolor="#ffffff"
     borderopacity="1"
     inkscape:showpageshadow="0"
     inkscape:pageopacity="0"
     inkscape:pagecheckerboard="1"
     inkscape:deskcolor="#505050"
     showgrid="false"
     inkscape:zoom="8.3958333"
     inkscape:cx="57.945409"
     inkscape:cy="5.8362283"
     inkscape:window-width="1920"
     inkscape:window-height="1000"
     inkscape:window-x="0"
     inkscape:window-y="0"
     inkscape:window-maximized="1"
     inkscape:current-layer="svg2" /><g
     id="g5"
     transform="matrix(1.0604301,0,0,1.0603418,-2.5198454,-2.6437041)"
     style="stroke-width:1.41458"><g
       id="g3"
       transform="matrix(0.3412628,0,0,0.34752118,14.631822,15.08627)"
       style="display:inline;stroke-width:4.10764"><path
         d="m 12,18 v -6 m 0,0 V 3.40992 c 0,-0.43075 0.4404,-0.72116 0.8364,-0.55148 l 8.4439,3.61885 c 0.4746,0.20336 0.4878,0.87125 0.0217,1.09321 z"
         stroke="#000000"
         stroke-width="3.2006"
         stroke-linecap="round"
         stroke-linejoin="round"
         id="path1"
         style="display:inline;stroke-width:2.58749;stroke-dasharray:none" /><path
         d="m 12,22 c 3.866,0 7,-1.567 7,-3.5 C 19,16.567 15.866,15 12,15 8.13401,15 5,16.567 5,18.5 5,20.433 8.13401,22 12,22 Z"
         stroke="#000000"
         stroke-width="3.2006"
         stroke-linecap="round"
         stroke-linejoin="round"
         id="path2"
         style="display:inline;stroke-width:2.58749;stroke-dasharray:none" /></g><g
       id="g4"
       transform="translate(-24.75,11.367008)"
       style="stroke-width:1.41458"><path
         d="M 33.75,7.75 28.53974,9.4868 C 28.15122,9.6163 27.75,9.3271 27.75,8.9175 V -5.81754 c 0,-0.25826 0.16526,-0.48755 0.41026,-0.56921 L 33.75,-8.25 m 0,16 5.2103,1.7368 C 39.3488,9.6163 39.75,9.3271 39.75,8.9175 V -5.81754 c 0,-0.25826 -0.1653,-0.48755 -0.4103,-0.56921 L 33.75,-8.25 m 0,16 v -16"
         stroke="#000000"
         stroke-width="1.5"
         stroke-linecap="round"
         stroke-linejoin="round"
         id="path1-7"
         style="stroke-width:1.2475;stroke-dasharray:none" /><path
         d="m 39.75,-6.25 5.2103,-1.73675 c 0.3885,-0.12951 0.7897,0.15967 0.7897,0.56921 V 3.75"
         stroke="#000000"
         stroke-width="1.5"
         stroke-linecap="round"
         stroke-linejoin="round"
         id="path2-5"
         style="stroke-width:1.2475;stroke-dasharray:none" /></g></g><g
     id="g6"
     transform="translate(-2.5978005,-1.8110564)"><path
       id="text4"
       style="font-size:13.3333px;font-family:'JetBrainsMono Nerd Font';-inkscape-font-specification:'JetBrainsMono Nerd Font';baseline-shift:baseline;fill:#000000;stroke-width:0.944882;stroke-linecap:round"
       sodipodi:type="inkscape:offset"
       inkscape:radius="0"
       inkscape:original="M 29.255859 2 C 28.366973 2 27.665945 2.2483172 27.150391 2.7460938 C 26.634837 3.2438703 26.376953 3.9296724 26.376953 4.8007812 L 26.376953 9.1992188 C 26.376953 10.070327 26.634837 10.75613 27.150391 11.253906 C 27.665945 11.751683 28.366973 12 29.255859 12 C 30.126968 12 30.820384 11.751683 31.335938 11.253906 C 31.851492 10.747241 32.109375 10.061439 32.109375 9.1992188 L 32.109375 6.7734375 L 28.9375 6.7734375 L 28.9375 7.8671875 L 30.910156 7.8671875 L 30.910156 9.1992188 C 30.910156 9.7503287 30.764036 10.178247 30.470703 10.480469 C 30.186259 10.78269 29.780302 10.933594 29.255859 10.933594 C 28.731416 10.933594 28.319799 10.78269 28.017578 10.480469 C 27.724245 10.178247 27.576172 9.7503287 27.576172 9.1992188 L 27.576172 4.7871094 C 27.576172 4.2359996 27.724245 3.8128638 28.017578 3.5195312 C 28.319799 3.2261986 28.731416 3.0800781 29.255859 3.0800781 C 29.780302 3.0800781 30.186259 3.2309817 30.470703 3.5332031 C 30.764036 3.8265357 30.910156 4.2496715 30.910156 4.8007812 L 32.109375 4.8007812 C 32.109375 3.9385612 31.851492 3.2575422 31.335938 2.7597656 C 30.820383 2.2531002 30.126968 2 29.255859 2 z M 41.603516 2.1328125 L 41.603516 3.2265625 L 44.136719 3.2265625 L 44.136719 9.8007812 C 44.136719 10.423002 44.326763 10.924419 44.708984 11.306641 C 45.100095 11.679973 45.620645 11.867188 46.269531 11.867188 L 48.537109 11.867188 L 48.537109 10.773438 L 46.269531 10.773438 C 45.985088 10.773438 45.758732 10.688419 45.589844 10.519531 C 45.420955 10.341754 45.335938 10.103003 45.335938 9.8007812 L 45.335938 2.1328125 L 41.603516 2.1328125 z M 54.123047 2.1328125 C 53.483049 2.1328125 52.981632 2.3028481 52.617188 2.640625 C 52.252744 2.9695131 52.070312 3.4222237 52.070312 4 L 52.070312 5.5332031 L 49.9375 5.5332031 L 49.9375 6.6269531 L 52.070312 6.6269531 L 52.070312 11.867188 L 53.269531 11.867188 L 53.269531 6.6269531 L 56.269531 6.6269531 L 56.269531 5.5332031 L 53.269531 5.5332031 L 53.269531 4 C 53.269531 3.4844458 53.55416 3.2265625 54.123047 3.2265625 L 56.269531 3.2265625 L 56.269531 2.1328125 L 54.123047 2.1328125 z M 37.203125 4.4257812 C 36.314238 4.4257812 35.611257 4.6836645 35.095703 5.1992188 C 34.580148 5.7058841 34.324219 6.426044 34.324219 7.359375 L 34.324219 9.0390625 C 34.324219 9.9635049 34.580148 10.683665 35.095703 11.199219 C 35.620146 11.714773 36.323127 11.972656 37.203125 11.972656 C 38.083123 11.972656 38.781321 11.714773 39.296875 11.199219 C 39.821318 10.683665 40.083984 9.9635049 40.083984 9.0390625 L 40.083984 7.359375 C 40.083984 6.426044 39.826102 5.7058842 39.310547 5.1992188 C 38.794993 4.6836645 38.092012 4.4257812 37.203125 4.4257812 z M 37.203125 5.4941406 C 37.727568 5.4941406 38.136355 5.6402611 38.429688 5.9335938 C 38.731909 6.2269264 38.882812 6.657675 38.882812 7.2265625 L 38.882812 9.1738281 C 38.882812 9.7427159 38.731909 10.173465 38.429688 10.466797 C 38.136355 10.76013 37.727568 10.90625 37.203125 10.90625 C 36.687571 10.90625 36.278785 10.76013 35.976562 10.466797 C 35.674341 10.173465 35.523438 9.7427159 35.523438 9.1738281 L 35.523438 7.2265625 C 35.523438 6.657675 35.674341 6.2269264 35.976562 5.9335938 C 36.278785 5.6402612 36.687571 5.4941406 37.203125 5.4941406 z "
       d="m 29.255859,2 c -0.888886,0 -1.589914,0.2483172 -2.105468,0.7460938 -0.515554,0.4977765 -0.773438,1.1835786 -0.773438,2.0546874 v 4.3984376 c 0,0.8711082 0.257884,1.5569112 0.773438,2.0546872 C 27.665945,11.751683 28.366973,12 29.255859,12 c 0.871109,0 1.564525,-0.248317 2.080079,-0.746094 0.515554,-0.506665 0.773437,-1.192467 0.773437,-2.0546872 V 6.7734375 H 28.9375 v 1.09375 h 1.972656 v 1.3320313 c 0,0.5511099 -0.14612,0.9790282 -0.439453,1.2812502 -0.284444,0.302221 -0.690401,0.453125 -1.214844,0.453125 -0.524443,0 -0.93606,-0.150904 -1.238281,-0.453125 C 27.724245,10.178247 27.576172,9.7503287 27.576172,9.1992188 V 4.7871094 c 0,-0.5511098 0.148073,-0.9742456 0.441406,-1.2675782 0.302221,-0.2933326 0.713838,-0.4394531 1.238281,-0.4394531 0.524443,0 0.9304,0.1509036 1.214844,0.453125 0.293333,0.2933326 0.439453,0.7164684 0.439453,1.2675781 h 1.199219 c 0,-0.86222 -0.257883,-1.543239 -0.773437,-2.0410156 C 30.820383,2.2531002 30.126968,2 29.255859,2 Z m 12.347657,0.1328125 v 1.09375 h 2.533203 v 6.5742187 c 0,0.6222208 0.190044,1.1236378 0.572265,1.5058598 0.391111,0.373332 0.911661,0.560547 1.560547,0.560547 h 2.267578 v -1.09375 h -2.267578 c -0.284443,0 -0.510799,-0.08502 -0.679687,-0.253907 -0.168889,-0.177777 -0.253906,-0.416528 -0.253906,-0.7187498 V 2.1328125 Z m 12.519531,0 c -0.639998,0 -1.141415,0.1700356 -1.505859,0.5078125 C 52.252744,2.9695131 52.070312,3.4222237 52.070312,4 V 5.5332031 H 49.9375 v 1.09375 h 2.132812 v 5.2402349 h 1.199219 V 6.6269531 h 3 v -1.09375 h -3 V 4 c 0,-0.5155542 0.284629,-0.7734375 0.853516,-0.7734375 h 2.146484 v -1.09375 z M 37.203125,4.4257812 c -0.888887,0 -1.591868,0.2578833 -2.107422,0.7734376 -0.515555,0.5066653 -0.771484,1.2268252 -0.771484,2.1601562 v 1.6796875 c 0,0.9244424 0.255929,1.6446025 0.771484,2.1601565 0.524443,0.515554 1.227424,0.773437 2.107422,0.773437 0.879998,0 1.578196,-0.257883 2.09375,-0.773437 0.524443,-0.515554 0.787109,-1.2357141 0.787109,-2.1601565 V 7.359375 c 0,-0.933331 -0.257882,-1.6534908 -0.773437,-2.1601562 C 38.794993,4.6836645 38.092012,4.4257812 37.203125,4.4257812 Z m 0,1.0683594 c 0.524443,0 0.93323,0.1461205 1.226563,0.4394532 0.302221,0.2933326 0.453124,0.7240812 0.453124,1.2929687 v 1.9472656 c 0,0.5688878 -0.150903,0.9996369 -0.453124,1.2929689 -0.293333,0.293333 -0.70212,0.439453 -1.226563,0.439453 -0.515554,0 -0.92434,-0.14612 -1.226563,-0.439453 C 35.674341,10.173465 35.523438,9.7427159 35.523438,9.1738281 V 7.2265625 c 0,-0.5688875 0.150903,-0.9996361 0.453124,-1.2929687 0.302223,-0.2933326 0.711009,-0.4394532 1.226563,-0.4394532 z" /><path
       d="m 29.309995,23.688974 q -1.33333,0 -2.106661,-0.746665 -0.773332,-0.746664 -0.773332,-2.053328 v -4.399989 q 0,-1.306663 0.773332,-2.053328 0.773331,-0.746665 2.106661,-0.746665 1.306663,0 2.079995,0.759999 0.773331,0.746664 0.773331,2.039994 h -1.199997 q 0,-0.826664 -0.439999,-1.266663 -0.426665,-0.453332 -1.21333,-0.453332 -0.786665,0 -1.239997,0.453332 -0.439999,0.439999 -0.439999,1.266663 v 4.399989 q 0,0.826665 0.439999,1.279997 0.453332,0.439999 1.239997,0.439999 0.786665,0 1.21333,-0.439999 0.439999,-0.453332 0.439999,-1.279997 h 1.199997 q 0,1.29333 -0.773331,2.053328 -0.773332,0.746665 -2.079995,0.746665 z m 7.253295,0 q -1.133331,0 -1.799996,-0.626665 -0.666665,-0.639998 -0.666665,-1.666662 0,-0.679999 0.306666,-1.186664 0.306666,-0.506665 0.853331,-0.786665 0.546666,-0.293332 1.25333,-0.293332 h 2.266661 v -0.573332 q 0,-1.426663 -1.559996,-1.426663 -0.693331,0 -1.119997,0.253332 -0.426665,0.253333 -0.453332,0.706665 h -1.199997 q 0.06667,-0.866664 0.799998,-1.426663 0.746665,-0.573332 1.973328,-0.573332 1.33333,0 2.039995,0.639999 0.719998,0.639998 0.719998,1.786662 v 5.039987 h -1.186663 v -1.33333 h -0.02667 q -0.106666,0.679998 -0.679998,1.079997 -0.573332,0.386666 -1.519996,0.386666 z m 0.293332,-1.013331 q 0.879998,0 1.399997,-0.426665 0.519998,-0.426666 0.519998,-1.159997 v -1.026664 h -2.133328 q -0.586665,0 -0.959997,0.359999 -0.359999,0.346666 -0.359999,0.933331 0,0.613332 0.399999,0.973331 0.413332,0.346665 1.13333,0.346665 z m 5.839965,0.879998 v -7.333315 h 1.199997 v 1.399997 h 0.02667 q 0.09333,-0.706665 0.599998,-1.119997 0.506666,-0.413333 1.359997,-0.413333 1.146664,0 1.759995,0.693332 0.626665,0.679998 0.626665,1.946662 v 0.626665 h -1.199997 v -0.626665 q 0,-1.599996 -1.559996,-1.599996 -0.786664,0 -1.199997,0.453332 -0.413332,0.453332 -0.413332,1.306663 v 4.666655 z m 11.239951,0 q -0.906664,0 -1.45333,-0.519999 -0.546665,-0.533331 -0.546665,-1.413329 v -4.306656 h -2.106661 v -1.093331 h 2.106661 v -2.066661 h 1.199997 v 2.066661 h 2.999992 v 1.093331 H 53.13654 v 4.306656 q 0,0.373332 0.213333,0.613332 0.226666,0.226666 0.586665,0.226666 h 2.133328 v 1.09333 z m 7.266628,0.106667 q -1.319996,0 -2.106661,-0.773332 -0.773331,-0.773331 -0.773331,-2.159994 v -1.679996 q 0,-1.399997 0.773331,-2.159995 0.773331,-0.773331 2.106661,-0.773331 1.33333,0 2.106662,0.773331 0.773331,0.759998 0.773331,2.159995 v 1.679996 q 0,1.386663 -0.786665,2.159994 -0.773331,0.773332 -2.093328,0.773332 z m 0,-1.066664 q 0.786665,0 1.226664,-0.439999 0.453332,-0.439999 0.453332,-1.29333 v -1.946662 q 0,-0.853331 -0.453332,-1.29333 -0.439999,-0.439999 -1.226664,-0.439999 -0.773331,0 -1.226663,0.439999 -0.453332,0.439999 -0.453332,1.29333 v 1.946662 q 0,0.853331 0.453332,1.29333 0.453332,0.439999 1.226663,0.439999 z m 6.146632,3.359991 v -1.09333 h 2.066661 q 0.626665,0 0.986664,-0.36 0.359999,-0.346665 0.359999,-0.946664 v -0.666665 l 0.02667,-1.199997 h -0.04 q -0.106666,0.653332 -0.626665,1.013331 -0.519999,0.346666 -1.306663,0.346666 -1.133331,0 -1.786663,-0.719998 -0.653331,-0.719999 -0.653331,-1.973329 v -1.546662 q 0,-1.253331 0.653331,-1.986662 0.653332,-0.733332 1.786663,-0.733332 0.786664,0 1.306663,0.373333 0.519999,0.373332 0.626665,1.026664 h 0.02667 v -1.266664 h 1.186663 v 7.333315 q 0,1.106664 -0.693331,1.746662 -0.679999,0.653332 -1.866662,0.653332 z m 1.826662,-3.906657 q 0.746665,0 1.17333,-0.466665 0.426666,-0.466666 0.426666,-1.29333 v -1.399997 q 0,-0.826664 -0.426666,-1.29333 -0.426665,-0.466665 -1.17333,-0.466665 -0.759998,0 -1.186664,0.439999 -0.413332,0.439999 -0.413332,1.186663 v 1.666663 q 0,0.746665 0.413332,1.186663 0.426666,0.439999 1.186664,0.439999 z m 5.519964,1.506663 v -7.333315 h 1.199997 v 1.399997 h 0.02667 q 0.09333,-0.706665 0.599998,-1.119997 0.506665,-0.413333 1.359997,-0.413333 1.146663,0 1.759995,0.693332 0.626665,0.679998 0.626665,1.946662 v 0.626665 h -1.199997 v -0.626665 q 0,-1.599996 -1.559996,-1.599996 -0.786664,0 -1.199997,0.453332 -0.413332,0.453332 -0.413332,1.306663 v 4.666655 z m 9.866624,0.133333 q -1.133331,0 -1.799996,-0.626665 -0.666665,-0.639998 -0.666665,-1.666662 0,-0.679999 0.306666,-1.186664 0.306666,-0.506665 0.853331,-0.786665 0.546666,-0.293332 1.253331,-0.293332 h 2.266661 v -0.573332 q 0,-1.426663 -1.559996,-1.426663 -0.693332,0 -1.119998,0.253332 -0.426665,0.253333 -0.453332,0.706665 h -1.199997 q 0.06667,-0.866664 0.799998,-1.426663 0.746665,-0.573332 1.973329,-0.573332 1.333329,0 2.039994,0.639999 0.719999,0.639998 0.719999,1.786662 v 5.039987 h -1.186664 v -1.33333 h -0.02667 q -0.106666,0.679998 -0.679998,1.079997 -0.573332,0.386666 -1.519996,0.386666 z m 0.293332,-1.013331 q 0.879998,0 1.399997,-0.426665 0.519999,-0.426666 0.519999,-1.159997 v -1.026664 h -2.133328 q -0.586666,0 -0.959998,0.359999 -0.359999,0.346666 -0.359999,0.933331 0,0.613332 0.399999,0.973331 0.413332,0.346665 1.13333,0.346665 z m 5.573298,3.279992 v -9.733309 h 1.199997 v 1.399997 h 0.01333 q 0.09333,-0.719998 0.626665,-1.119997 0.533332,-0.413333 1.359997,-0.413333 1.106664,0 1.759995,0.733332 0.653332,0.719998 0.653332,1.986662 v 2.146661 q 0,1.266663 -0.653332,1.999995 -0.653331,0.733331 -1.759995,0.733331 -0.826665,0 -1.359997,-0.413332 -0.533332,-0.413332 -0.626665,-1.119997 h -0.04 l 0.02667,1.666662 v 2.133328 z m 2.799993,-3.306658 q 0.759998,0 1.186664,-0.399999 Q 94.843,21.848979 94.843,20.955648 V 18.82232 q 0,-0.906665 -0.426665,-1.29333 -0.426666,-0.399999 -1.186664,-0.399999 -0.733332,0 -1.173331,0.466665 -0.426665,0.466666 -0.426665,1.29333 v 1.999995 q 0,0.826665 0.426665,1.29333 0.439999,0.466666 1.173331,0.466666 z m 5.199965,0.906664 v -9.733309 h 1.199997 v 3.799991 h 0.01333 q 0.09333,-0.733332 0.599997,-1.133331 0.50667,-0.399999 1.34667,-0.399999 1.10666,0 1.75999,0.679999 0.65334,0.679998 0.65334,1.853328 v 4.933321 h -1.2 V 18.82232 q 0,-0.826665 -0.42667,-1.266664 -0.41333,-0.453332 -1.13333,-0.453332 -0.74666,0 -1.18666,0.466666 -0.42667,0.466665 -0.42667,1.319996 v 4.666655 z m 10.773284,0.133333 q -1.29333,0 -2.09332,-0.773331 -0.78667,-0.786665 -0.78667,-2.159995 v -1.733329 q 0,-1.37333 0.78667,-2.146661 0.79999,-0.786665 2.09332,-0.786665 0.86667,0 1.50667,0.346666 0.65333,0.346666 1.01333,0.973331 0.36,0.626665 0.36,1.479996 v 1.306664 h -4.58666 v 0.693331 q 0,0.813332 0.46667,1.29333 0.46666,0.466666 1.23999,0.466666 0.66667,0 1.09333,-0.253333 0.44,-0.266666 0.53334,-0.706665 h 1.19999 q -0.12,0.919998 -0.89333,1.466663 -0.77333,0.533332 -1.93333,0.533332 z m -1.70666,-4.426655 h 3.41333 v -0.373333 q 0,-0.866664 -0.45334,-1.33333 -0.43999,-0.479998 -1.25333,-0.479998 -0.81333,0 -1.26666,0.479998 -0.44,0.466666 -0.44,1.33333 z m 7.19997,4.293322 v -7.333315 h 1.19999 v 1.399997 h 0.0267 q 0.0933,-0.706665 0.6,-1.119997 0.50666,-0.413333 1.35999,-0.413333 1.14667,0 1.76,0.693332 0.62666,0.679998 0.62666,1.946662 v 0.626665 h -1.19999 v -0.626665 q 0,-1.599996 -1.56,-1.599996 -0.78666,0 -1.2,0.453332 -0.41333,0.453332 -0.41333,1.306663 v 4.666655 z"
       id="text4-9"
       style="font-size:13.3333px;font-family:'JetBrainsMono Nerd Font';-inkscape-font-specification:'JetBrainsMono Nerd Font';fill:#000000;stroke-width:0.944882;stroke-linecap:round"
       aria-label="Cartographer" /></g></svg>
